<?xml version="1.0" standalone="no"?>
<!DOCTYPE svg PUBLIC "-//W3C//DTD SVG 20010904//EN"
 "http://www.w3.org/TR/2001/REC-SVG-20010904/DTD/svg10.dtd">
<svg version="1.0" xmlns="http://www.w3.org/2000/svg"
 width="1024.000000pt" height="1024.000000pt" viewBox="0 0 1024.000000 1024.000000"
 preserveAspectRatio="xMidYMid meet">

<g transform="translate(0.000000,1024.000000) scale(0.100000,-0.100000)"
fill="#000000" stroke="none">
<path d="M5409 9135 c-127 -20 -276 -62 -340 -96 -33 -18 -99 -72 -160 -132
-94 -92 -110 -113 -161 -212 -68 -134 -93 -213 -114 -369 -16 -118 -15 -166
12 -352 l6 -42 -43 9 c-57 10 -259 -7 -373 -32 -49 -11 -154 -46 -235 -78
-201 -80 -184 -78 -228 -38 -47 42 -173 127 -230 156 -89 44 -267 113 -346
132 -45 11 -90 28 -99 36 -20 18 -148 30 -193 19 -31 -8 -107 -75 -134 -120
-36 -57 -88 -200 -114 -311 -35 -150 -46 -440 -23 -591 20 -130 26 -144 75
-183 50 -40 53 -72 12 -121 -70 -86 -185 -352 -205 -477 -17 -104 -40 -159
-95 -226 -84 -101 -119 -264 -128 -592 -6 -236 9 -410 47 -559 21 -84 94 -252
147 -339 47 -79 250 -287 363 -373 l88 -66 5 -146 c4 -115 11 -168 31 -241 14
-52 26 -111 26 -131 0 -36 59 -188 98 -253 11 -17 22 -44 25 -58 18 -76 104
-125 257 -145 127 -17 329 -22 425 -10 60 7 67 10 45 18 -24 9 -24 11 -6 21
135 85 183 148 212 277 9 41 19 81 23 89 5 11 48 14 210 15 175 1 204 -1 211
-15 5 -8 16 -56 25 -106 18 -109 34 -150 70 -183 36 -33 126 -166 134 -199 11
-38 55 -42 366 -38 361 5 397 17 473 165 37 70 52 115 108 317 l13 51 98 11
c58 7 144 27 211 49 133 43 135 42 163 -54 25 -83 80 -212 113 -265 40 -62 99
-108 160 -124 77 -20 479 -18 537 2 105 37 172 121 228 286 16 46 36 102 44
124 30 82 78 348 86 484 9 145 26 208 65 251 13 14 41 52 62 84 22 33 47 71
57 85 46 68 125 319 157 496 13 71 29 413 30 610 0 149 -18 281 -51 375 -10
30 -19 57 -19 61 0 3 32 9 70 12 120 10 263 92 315 181 23 39 30 44 69 48 62
7 191 73 249 126 76 72 90 108 95 237 5 128 -2 140 -71 138 -58 -3 -69 -20
-77 -110 -3 -43 -13 -92 -23 -110 -22 -41 -105 -105 -132 -101 -18 3 -20 9
-17 59 9 145 -95 352 -202 403 -48 23 -130 21 -183 -5 -95 -46 -153 -150 -153
-275 0 -127 67 -242 186 -316 42 -26 64 -46 62 -57 -7 -36 -118 -86 -176 -79
-24 3 -37 22 -107 158 -128 249 -255 460 -370 615 -95 129 -253 273 -495 452
-142 105 -205 143 -278 166 -44 14 -68 28 -70 39 -2 9 15 54 37 100 22 46 52
124 67 173 24 80 27 107 28 240 1 186 -17 283 -80 437 -66 160 -121 229 -296
366 -84 66 -147 93 -278 122 -47 10 -112 26 -145 34 -71 19 -130 19 -246 1z
m-94 -175 c3 -5 -10 -27 -29 -47 -150 -160 -242 -291 -319 -451 -28 -59 -52
-111 -52 -117 0 -5 -4 -13 -10 -17 -6 -5 -9 -67 -7 -161 3 -162 -5 -207 -36
-207 -20 0 -64 29 -45 30 8 0 10 21 7 73 -2 39 -6 99 -8 132 -9 153 40 350
127 513 38 72 62 103 100 134 56 44 126 82 202 109 61 21 62 22 70 9z m500 -5
c33 -8 110 -40 172 -69 121 -59 124 -62 230 -238 52 -85 69 -131 93 -254 41
-212 16 -504 -42 -504 -6 0 -22 10 -35 22 -31 29 -126 35 -302 19 -198 -19
-360 -63 -393 -109 -19 -26 -94 -53 -126 -46 -15 4 -36 15 -48 25 -11 11 -79
37 -150 60 -178 55 -183 57 -190 98 -4 19 -4 100 -1 180 6 145 6 147 53 261
55 135 131 251 241 368 68 72 91 89 183 134 137 69 207 80 315 53z m-2682
-1000 c54 -14 137 -43 186 -65 90 -39 279 -150 339 -198 56 -45 106 -72 133
-72 14 0 98 26 186 59 282 103 487 137 778 128 162 -5 195 -9 330 -42 83 -20
160 -39 173 -41 12 -2 22 -9 22 -14 0 -5 -30 -33 -67 -63 -80 -64 -97 -82 -88
-97 4 -6 -10 -29 -30 -51 -42 -47 -69 -103 -60 -127 3 -9 17 -26 32 -36 l27
-20 37 42 c34 39 70 59 53 30 -9 -16 21 9 113 93 143 131 327 226 491 254 125
21 274 24 296 6 50 -41 131 -255 151 -396 19 -128 19 -196 0 -375 -22 -210
-58 -337 -119 -419 -29 -39 -26 -51 14 -51 47 0 86 44 145 164 48 97 58 127
76 236 11 69 25 148 29 175 12 73 12 239 -1 312 -6 35 -9 66 -6 69 3 3 19 -2
36 -11 39 -20 233 -159 326 -234 94 -76 352 -333 405 -404 54 -72 270 -502
305 -604 28 -83 87 -319 105 -421 14 -78 14 -345 0 -510 -13 -155 -47 -350
-66 -380 -8 -12 -12 -27 -9 -32 3 -6 2 -10 -3 -10 -6 0 -8 -10 -4 -22 3 -13 1
-19 -6 -15 -6 4 -9 0 -8 -10 3 -18 -13 -71 -36 -124 -7 -15 -17 -25 -24 -22
-12 4 -27 -33 -30 -73 -1 -28 -57 -125 -86 -150 l-22 -19 15 25 c9 14 33 51
53 83 37 57 38 83 1 28 -10 -16 -22 -28 -26 -25 -4 2 -11 -5 -14 -17 -4 -11
-9 -18 -12 -15 -7 7 -50 -46 -62 -76 -18 -47 -32 -182 -37 -353 -5 -189 -20
-278 -68 -422 -43 -128 -75 -189 -124 -236 -37 -36 -44 -39 -124 -46 -85 -8
-325 1 -385 14 -18 4 -39 15 -48 25 -23 26 -145 291 -145 317 0 25 59 76 136
117 110 59 183 137 184 199 0 37 -19 35 -88 -12 -107 -72 -170 -98 -387 -160
-302 -86 -443 -110 -518 -87 -65 20 -73 10 -82 -98 -8 -116 -21 -184 -52 -277
-28 -87 -65 -141 -83 -123 -9 9 -25 6 -67 -13 -51 -24 -66 -25 -226 -26 -168
-1 -254 5 -268 20 -36 39 -148 250 -194 368 -31 80 -57 145 -58 146 -1 0 -137
4 -302 9 -323 9 -403 21 -585 84 -206 72 -484 234 -521 303 -7 14 -48 54 -91
89 -130 108 -336 313 -402 401 -110 146 -185 323 -211 493 -22 144 -20 421 5
567 37 213 67 321 125 440 30 62 55 118 55 124 0 61 136 350 235 499 150 226
270 353 460 485 116 81 126 92 100 112 -19 14 -87 13 -126 -2 -10 -4 -16 0
-16 11 0 9 13 22 28 27 25 10 26 13 17 41 -22 66 -83 84 -165 47 -52 -24 -83
-81 -83 -155 0 -55 -15 -85 -70 -146 -17 -19 -63 -72 -102 -117 -85 -100 -111
-108 -128 -40 -6 23 -13 48 -15 54 -2 7 -7 126 -10 265 -7 262 2 360 39 464
19 55 60 118 88 138 33 23 119 20 231 -9z m4717 -1155 c70 -50 111 -271 59
-319 -21 -19 -24 -19 -53 -4 -73 37 -156 135 -156 182 0 76 51 161 97 161 14
0 38 -9 53 -20z m-4709 -2839 c39 -30 218 -127 319 -171 123 -55 212 -85 334
-115 130 -32 133 -35 105 -111 -18 -48 -37 -75 -110 -146 l-89 -88 -142 0
c-79 0 -160 5 -180 10 -67 19 -155 143 -216 303 -59 158 -88 337 -53 337 4 0
19 -8 32 -19z"/>
<path d="M5675 8501 c-46 -12 -183 -90 -200 -114 -32 -45 -8 -117 38 -117 9 0
39 20 66 44 52 46 100 66 162 66 41 0 73 -23 160 -112 64 -67 95 -74 128 -32
37 47 22 91 -59 173 -75 76 -204 116 -295 92z"/>
<path d="M5582 7257 c-41 -13 -102 -79 -102 -112 0 -37 31 -48 110 -41 121 12
158 -17 201 -156 38 -122 67 -160 118 -156 31 3 36 7 39 30 8 65 -104 325
-161 375 -34 30 -90 53 -129 53 -10 0 -18 5 -18 10 0 12 -14 11 -58 -3z"/>
<path d="M3313 6850 c-99 -20 -166 -78 -161 -139 3 -31 7 -36 32 -39 17 -2 39
4 55 16 60 44 85 51 182 50 105 -2 139 9 139 46 0 33 -15 42 -104 60 -86 18
-83 17 -143 6z"/>
<path d="M4845 6793 c-11 -2 -30 -6 -43 -9 -28 -6 -112 -81 -112 -100 0 -8 20
-24 44 -36 l45 -21 76 22 c115 35 163 19 222 -74 32 -51 64 -59 103 -27 18 15
21 24 16 49 -26 116 -219 224 -351 196z"/>
<path d="M3210 6354 c-48 -21 -87 -61 -101 -103 -7 -20 -12 -75 -12 -122 0
-72 4 -93 24 -129 34 -62 79 -90 143 -90 82 0 135 32 170 104 16 32 31 78 34
101 5 52 -23 183 -46 208 -41 45 -144 60 -212 31z"/>
<path d="M4815 6271 c-87 -22 -148 -81 -170 -166 -31 -119 6 -244 92 -306 42
-30 55 -34 110 -34 52 0 68 5 105 30 84 59 105 145 73 312 -15 80 -33 113 -76
145 -28 21 -92 30 -134 19z"/>
<path d="M3800 6059 c-187 -40 -333 -119 -460 -248 -66 -67 -95 -106 -127
-172 -92 -183 -109 -368 -45 -500 42 -88 127 -174 217 -221 66 -34 190 -75
365 -119 80 -20 100 -36 100 -81 0 -30 28 -93 63 -141 29 -38 101 -82 167
-101 170 -50 454 -17 573 66 18 12 82 72 142 133 108 108 111 112 149 210 57
146 76 214 76 271 0 54 -9 68 -65 96 -16 9 -48 25 -70 37 -27 14 -57 21 -96
21 -80 0 -89 5 -89 49 0 57 -34 180 -74 263 -109 230 -271 385 -452 433 -100
26 -264 28 -374 4z m291 -139 c86 -16 191 -73 261 -143 66 -65 110 -138 154
-254 69 -182 -26 -384 -232 -491 -127 -65 -229 -85 -399 -79 -223 9 -371 62
-482 172 -80 80 -97 132 -91 279 3 92 7 109 37 172 49 99 160 207 272 262 158
78 338 108 480 82z m285 -1059 c-7 -10 -97 -43 -103 -37 -3 2 47 24 105 45 2
0 1 -3 -2 -8z m-199 -67 c-3 -3 -12 -4 -19 -1 -8 3 -5 6 6 6 11 1 17 -2 13 -5z"/>
<path d="M3565 5621 c-37 -16 -94 -81 -104 -119 -22 -75 -15 -112 28 -153 71
-67 151 -72 218 -15 26 23 28 29 27 103 0 89 -19 140 -62 165 -36 21 -82 29
-107 19z"/>
<path d="M4109 5581 c-14 -10 -35 -40 -48 -66 -19 -38 -22 -57 -18 -97 14
-112 89 -148 194 -92 52 27 61 41 62 94 1 38 -44 103 -105 154 -38 31 -53 32
-85 7z"/>
<path d="M7400 4690 c-6 -11 -8 -20 -6 -20 3 0 10 9 16 20 6 11 8 20 6 20 -3
0 -10 -9 -16 -20z"/>
<path d="M6308 3944 c-16 -8 -28 -17 -28 -19 0 -5 70 22 79 30 10 11 -26 3
-51 -11z"/>
<path d="M1289 2640 c-70 -37 -85 -96 -114 -430 -8 -91 -22 -241 -31 -335 -9
-93 -17 -213 -18 -266 -1 -84 2 -100 19 -119 36 -39 73 -53 138 -48 49 4 64 9
82 30 20 23 23 41 29 174 13 274 32 434 50 434 7 0 29 -72 54 -179 49 -205 80
-277 126 -296 38 -16 107 -6 143 21 39 29 89 119 134 239 23 61 46 116 51 122
26 32 31 -4 24 -181 -7 -206 1 -282 39 -336 44 -63 121 -80 170 -37 21 18 27
36 36 107 7 50 9 131 5 195 -3 60 -11 268 -16 460 -9 326 -17 425 -35 443 -11
12 -178 14 -207 3 -39 -15 -53 -41 -99 -191 -73 -238 -129 -380 -149 -380 -41
0 -73 69 -159 346 -28 88 -60 173 -72 189 -44 55 -133 71 -200 35z"/>
<path d="M3700 2643 c-36 -5 -64 -24 -83 -58 -8 -13 -12 -90 -13 -225 -1 -153
-6 -226 -19 -290 -21 -99 -15 -254 11 -321 14 -32 16 -59 10 -133 -10 -153 2
-169 136 -170 114 -2 126 26 127 295 1 88 -3 149 -9 155 -14 14 1 81 26 125
25 41 60 66 106 74 31 6 41 3 64 -20 l27 -27 -7 -249 c-8 -283 -6 -292 69
-329 106 -51 185 4 185 129 0 27 7 109 16 183 20 164 13 271 -22 379 -21 63
-35 87 -70 119 -23 21 -55 42 -70 46 -27 7 -141 -6 -247 -28 -48 -9 -60 -9
-67 2 -4 7 -8 69 -9 137 -1 125 -15 188 -43 197 -26 9 -84 13 -118 9z"/>
<path d="M6881 2637 c-42 -13 -56 -45 -70 -158 -33 -275 -40 -791 -11 -899 6
-25 16 -65 21 -90 14 -62 33 -80 86 -80 51 0 98 21 114 52 7 12 16 96 20 188
9 185 29 315 53 353 10 14 35 37 57 53 l40 27 21 -20 c44 -44 61 -236 37 -409
-9 -66 -8 -84 6 -121 21 -55 48 -73 106 -73 50 0 98 26 131 71 40 53 47 401
11 543 -50 201 -166 286 -323 237 -80 -25 -106 -26 -112 -3 -2 9 -1 58 3 107
9 111 -1 172 -33 197 -48 39 -92 46 -157 25z"/>
<path d="M2436 2630 c-72 -23 -129 -126 -106 -194 29 -88 153 -107 235 -35
117 103 20 276 -129 229z"/>
<path d="M8220 2615 c-107 -30 -118 -42 -139 -155 -17 -85 -42 -133 -85 -158
-61 -36 -61 -105 -1 -141 57 -33 65 -65 65 -264 0 -96 4 -198 10 -226 10 -52
36 -100 55 -101 6 0 41 -22 77 -49 37 -27 98 -61 135 -76 113 -45 177 -21 251
94 39 61 31 63 92 -23 38 -54 92 -71 230 -71 110 0 118 2 182 33 168 82 273
286 254 490 -13 148 -117 258 -295 317 -159 52 -409 -36 -506 -178 -40 -59
-40 -59 -39 -150 1 -61 8 -119 23 -172 12 -44 23 -86 24 -94 2 -18 -33 -29
-96 -30 -58 -1 -89 25 -108 90 -15 53 -14 188 3 284 l13 70 64 11 c76 14 93
31 89 89 -3 43 -4 43 -113 92 -37 17 -41 23 -52 73 -6 30 -12 79 -12 107 -1
61 -26 129 -52 143 -10 6 -19 10 -21 9 -2 0 -23 -7 -48 -14z m780 -535 c0 -5
18 -21 40 -35 50 -32 65 -77 56 -169 -12 -106 -64 -161 -163 -172 -64 -7 -107
19 -135 83 -41 93 -34 201 16 242 45 38 186 76 186 51z"/>
<path d="M3009 2601 c-157 -61 -297 -220 -330 -376 -31 -144 -12 -326 47 -462
42 -97 157 -197 310 -270 77 -37 82 -38 184 -37 138 1 203 25 241 87 32 52 40
92 29 142 -19 83 -88 100 -207 51 -78 -32 -133 -33 -198 -2 -64 30 -86 55
-126 140 -41 87 -50 192 -25 278 20 70 90 166 151 208 65 44 106 48 183 16 75
-32 124 -33 182 -3 37 18 47 30 59 65 16 50 8 105 -19 132 -11 11 -40 21 -77
25 -32 3 -82 11 -112 16 -92 15 -240 10 -292 -10z"/>
<path d="M7702 2599 c-34 -23 -62 -65 -62 -97 0 -29 38 -100 59 -112 42 -22
162 2 196 40 40 44 36 144 -8 175 -34 24 -144 20 -185 -6z"/>
<path d="M4688 2350 c-92 -16 -147 -40 -163 -70 -19 -37 -19 -84 1 -125 23
-49 47 -55 124 -34 101 29 149 22 193 -30 36 -44 18 -61 -63 -61 -51 0 -162
-30 -220 -60 -86 -45 -129 -128 -138 -266 -7 -126 18 -182 103 -227 54 -28
230 -36 325 -14 61 14 65 14 88 -4 44 -34 136 -16 179 35 25 30 25 33 20 146
-3 63 -12 201 -20 305 -16 219 -32 272 -100 330 -69 59 -221 94 -329 75z m200
-534 c5 -43 -25 -113 -59 -137 -25 -17 -41 -21 -85 -17 -66 6 -96 29 -92 72 2
23 13 37 43 57 52 34 122 59 160 56 25 -2 31 -7 33 -31z"/>
<path d="M5300 2322 c-44 -36 -52 -100 -57 -494 l-6 -366 25 -25 c50 -50 180
-44 216 10 20 31 23 163 8 318 l-8 90 33 50 c36 53 121 118 148 113 30 -6 43
-77 50 -273 4 -108 12 -199 18 -210 21 -38 50 -56 101 -62 66 -7 113 19 137
79 23 60 24 411 1 511 -18 76 -62 169 -99 209 -55 60 -171 57 -299 -8 -37 -19
-70 -34 -72 -34 -2 0 -10 16 -16 35 -6 19 -23 44 -37 55 -33 26 -112 27 -143
2z"/>
<path d="M7723 2291 c-62 -39 -61 -32 -68 -433 l-8 -366 25 -25 c43 -43 160
-48 208 -9 20 17 21 24 21 332 0 355 -9 462 -39 492 -29 30 -99 34 -139 9z"/>
<path d="M2420 2293 c-73 -14 -82 -63 -87 -434 -3 -330 0 -380 31 -416 29 -34
99 -42 150 -18 68 32 70 44 70 370 0 361 -7 460 -37 480 -25 16 -90 25 -127
18z"/>
<path d="M6450 2288 c-80 -12 -191 -69 -255 -129 -67 -63 -113 -152 -121 -236
-8 -74 17 -209 51 -279 46 -94 165 -179 255 -183 8 0 35 -5 60 -10 100 -22
178 -7 227 46 28 29 33 42 33 84 0 39 -5 55 -29 81 -28 31 -30 32 -140 38 -89
6 -118 11 -138 27 -43 31 -65 68 -70 116 -7 58 24 126 75 165 32 25 43 27 128
28 51 0 106 7 123 14 36 14 71 66 71 103 0 36 -43 82 -103 110 -66 31 -99 36
-167 25z"/>
</g>
</svg>
